<mxfile host="app.diagrams.net" agent="Mozilla/5.0 (Windows NT 10.0; Win64; x64) AppleWebKit/537.36 (KHTML, like Gecko) Chrome/127.0.0.0 Safari/537.36 OPR/113.0.0.0" version="24.7.17">
  <diagram name="Página-1" id="fHTKGEfhqNANvOGd0EFG">
    <mxGraphModel dx="2161" dy="1071" grid="0" gridSize="10" guides="1" tooltips="1" connect="1" arrows="1" fold="1" page="0" pageScale="1" pageWidth="827" pageHeight="1169" math="0" shadow="0">
      <root>
        <mxCell id="0" />
        <mxCell id="1" parent="0" />
        <mxCell id="VMKnn5KG_D8jYdJ9xe5q-3" style="edgeStyle=none;curved=1;rounded=0;orthogonalLoop=1;jettySize=auto;html=1;fontSize=12;startSize=8;endSize=8;" edge="1" parent="1" source="VMKnn5KG_D8jYdJ9xe5q-1" target="VMKnn5KG_D8jYdJ9xe5q-2">
          <mxGeometry relative="1" as="geometry" />
        </mxCell>
        <mxCell id="VMKnn5KG_D8jYdJ9xe5q-1" value="User" style="rounded=0;whiteSpace=wrap;html=1;" vertex="1" parent="1">
          <mxGeometry x="-420" y="44" width="120" height="60" as="geometry" />
        </mxCell>
        <mxCell id="VMKnn5KG_D8jYdJ9xe5q-4" style="edgeStyle=none;curved=1;rounded=0;orthogonalLoop=1;jettySize=auto;html=1;entryX=1;entryY=0.5;entryDx=0;entryDy=0;fontSize=12;startSize=8;endSize=8;" edge="1" parent="1" source="VMKnn5KG_D8jYdJ9xe5q-2" target="VMKnn5KG_D8jYdJ9xe5q-1">
          <mxGeometry relative="1" as="geometry" />
        </mxCell>
        <mxCell id="VMKnn5KG_D8jYdJ9xe5q-9" style="edgeStyle=none;curved=1;rounded=0;orthogonalLoop=1;jettySize=auto;html=1;fontSize=12;startSize=8;endSize=8;" edge="1" parent="1" source="VMKnn5KG_D8jYdJ9xe5q-2" target="VMKnn5KG_D8jYdJ9xe5q-8">
          <mxGeometry relative="1" as="geometry" />
        </mxCell>
        <mxCell id="VMKnn5KG_D8jYdJ9xe5q-12" style="edgeStyle=none;curved=1;rounded=0;orthogonalLoop=1;jettySize=auto;html=1;fontSize=12;startSize=8;endSize=8;" edge="1" parent="1" source="VMKnn5KG_D8jYdJ9xe5q-2" target="VMKnn5KG_D8jYdJ9xe5q-7">
          <mxGeometry relative="1" as="geometry" />
        </mxCell>
        <mxCell id="VMKnn5KG_D8jYdJ9xe5q-13" style="edgeStyle=none;curved=1;rounded=0;orthogonalLoop=1;jettySize=auto;html=1;fontSize=12;startSize=8;endSize=8;" edge="1" parent="1" source="VMKnn5KG_D8jYdJ9xe5q-2" target="VMKnn5KG_D8jYdJ9xe5q-6">
          <mxGeometry relative="1" as="geometry" />
        </mxCell>
        <mxCell id="VMKnn5KG_D8jYdJ9xe5q-14" style="edgeStyle=none;curved=1;rounded=0;orthogonalLoop=1;jettySize=auto;html=1;fontSize=12;startSize=8;endSize=8;" edge="1" parent="1" source="VMKnn5KG_D8jYdJ9xe5q-2" target="VMKnn5KG_D8jYdJ9xe5q-5">
          <mxGeometry relative="1" as="geometry" />
        </mxCell>
        <mxCell id="VMKnn5KG_D8jYdJ9xe5q-2" value="&lt;div&gt;Ingresar desición&lt;/div&gt;" style="rounded=1;whiteSpace=wrap;html=1;" vertex="1" parent="1">
          <mxGeometry x="-202" y="44" width="120" height="60" as="geometry" />
        </mxCell>
        <mxCell id="VMKnn5KG_D8jYdJ9xe5q-15" style="edgeStyle=none;curved=1;rounded=0;orthogonalLoop=1;jettySize=auto;html=1;fontSize=12;startSize=8;endSize=8;" edge="1" parent="1" source="VMKnn5KG_D8jYdJ9xe5q-5" target="VMKnn5KG_D8jYdJ9xe5q-2">
          <mxGeometry relative="1" as="geometry" />
        </mxCell>
        <mxCell id="VMKnn5KG_D8jYdJ9xe5q-5" value="chats" style="rounded=0;whiteSpace=wrap;html=1;" vertex="1" parent="1">
          <mxGeometry x="-35" y="-77" width="120" height="60" as="geometry" />
        </mxCell>
        <mxCell id="VMKnn5KG_D8jYdJ9xe5q-16" style="edgeStyle=none;curved=1;rounded=0;orthogonalLoop=1;jettySize=auto;html=1;fontSize=12;startSize=8;endSize=8;" edge="1" parent="1" source="VMKnn5KG_D8jYdJ9xe5q-6" target="VMKnn5KG_D8jYdJ9xe5q-2">
          <mxGeometry relative="1" as="geometry" />
        </mxCell>
        <mxCell id="VMKnn5KG_D8jYdJ9xe5q-6" value="Inicio" style="rounded=0;whiteSpace=wrap;html=1;" vertex="1" parent="1">
          <mxGeometry x="85" y="28" width="120" height="60" as="geometry" />
        </mxCell>
        <mxCell id="VMKnn5KG_D8jYdJ9xe5q-11" style="edgeStyle=none;curved=1;rounded=0;orthogonalLoop=1;jettySize=auto;html=1;fontSize=12;startSize=8;endSize=8;" edge="1" parent="1" source="VMKnn5KG_D8jYdJ9xe5q-7" target="VMKnn5KG_D8jYdJ9xe5q-2">
          <mxGeometry relative="1" as="geometry" />
        </mxCell>
        <mxCell id="VMKnn5KG_D8jYdJ9xe5q-7" value="Perfil" style="rounded=0;whiteSpace=wrap;html=1;" vertex="1" parent="1">
          <mxGeometry x="41" y="154" width="120" height="60" as="geometry" />
        </mxCell>
        <mxCell id="VMKnn5KG_D8jYdJ9xe5q-10" style="edgeStyle=none;curved=1;rounded=0;orthogonalLoop=1;jettySize=auto;html=1;fontSize=12;startSize=8;endSize=8;" edge="1" parent="1" source="VMKnn5KG_D8jYdJ9xe5q-8" target="VMKnn5KG_D8jYdJ9xe5q-2">
          <mxGeometry relative="1" as="geometry" />
        </mxCell>
        <mxCell id="VMKnn5KG_D8jYdJ9xe5q-8" value="Buscar" style="rounded=0;whiteSpace=wrap;html=1;" vertex="1" parent="1">
          <mxGeometry x="-137" y="222" width="120" height="60" as="geometry" />
        </mxCell>
      </root>
    </mxGraphModel>
  </diagram>
</mxfile>
